<svg width="10927" height="7243" viewBox="0 0 10927 7243" fill="none" xmlns="http://www.w3.org/2000/svg">
<path d="M7767 7240V6029.19L8183 5523.59V4607" stroke="white" stroke-width="300"/>
<path d="M6164.04 6382.19H6314.04V6232.19H6164.04V6382.19ZM5398.36 6382.19V6232.19H5393.99L5389.62 6232.45L5398.36 6382.19ZM4929.07 5034.19L5078.45 5047.88L5087.71 4946.82L4997.35 4900.63L4929.07 5034.19ZM4114 4617.54L3982.06 4546.18L3909.02 4681.22L4045.73 4751.1L4114 4617.54ZM4657.38 3612.93L4789.32 3684.29L4808.61 3648.62L4807.31 3608.09L4657.38 3612.93ZM8955.06 5450.87L8875.36 5323.8L8806.21 5367.17L8805.08 5448.8L8955.06 5450.87ZM8955.06 549.272L9028.73 418.609L9028.73 418.609L8955.06 549.272ZM6314.04 7240V6382.19H6014.04V7240H6314.04ZM6164.04 6232.19H5398.36V6532.19H6164.04V6232.19ZM5389.62 6232.45C5343.73 6235.12 5267.76 6224.58 5203.68 6185.83C5146.47 6151.22 5092.09 6090.97 5078.03 5972.39L4780.12 6007.71C4805.58 6222.44 4915.87 6362.35 5048.42 6442.53C5174.12 6518.56 5313.03 6537.43 5407.1 6531.94L5389.62 6232.45ZM5078.03 5972.39C5040.35 5654.58 5062.31 5223.99 5078.45 5047.88L4779.7 5020.51C4762.9 5203.86 4738.76 5658.87 4780.12 6007.71L5078.03 5972.39ZM4997.35 4900.63L4182.27 4483.98L4045.73 4751.1L4860.8 5167.75L4997.35 4900.63ZM4245.94 4688.9L4789.32 3684.29L4525.45 3541.57L3982.06 4546.18L4245.94 4688.9ZM8805.08 5448.8L8780.38 7237.93L9080.35 7242.07L9105.05 5452.94L8805.08 5448.8ZM9034.77 5577.94C10162.8 4870.43 10535.6 3785.39 10438.1 2777.87C10341.7 1780.32 9782.6 843.646 9028.73 418.609L8881.4 679.935C9535.39 1048.66 10050.8 1888.89 10139.5 2806.75C10227.3 3714.63 9896.19 4683.51 8875.36 5323.8L9034.77 5577.94ZM9028.73 418.609C8142.13 -81.264 6986.13 -160.015 6059.5 333.325C5122.65 832.104 4451.98 1897.42 4507.46 3617.76L4807.31 3608.09C4754.69 1976.55 5385.27 1032.15 6200.48 598.133C7025.91 158.675 8072.8 224.04 8881.4 679.935L9028.73 418.609Z" fill="white"/>
<path d="M6862 7240V5452.82L7384 4588.43V3689" stroke="white" stroke-width="300"/>
<path d="M7478.5 1722.5L8222.5 1012.5L8956.5 1824L9687.58 1250.96" stroke="white" stroke-width="300"/>
<path d="M8509 4232C8509 4409.64 8364.02 4555 8183.5 4555C8002.98 4555 7858 4409.64 7858 4232C7858 4054.36 8002.98 3909 8183.5 3909C8364.02 3909 8509 4054.36 8509 4232Z" stroke="white" stroke-width="300"/>
<path d="M7710 3380C7710 3557.79 7565.09 3703 7385 3703C7204.91 3703 7060 3557.79 7060 3380C7060 3202.21 7204.91 3057 7385 3057C7565.09 3057 7710 3202.21 7710 3380Z" stroke="white" stroke-width="300"/>
<path d="M7662 1842C7662 2019.79 7517.09 2165 7337 2165C7156.91 2165 7012 2019.79 7012 1842C7012 1664.21 7156.91 1519 7337 1519C7517.09 1519 7662 1664.21 7662 1842Z" stroke="white" stroke-width="300"/>
<line x1="-2.27122e-05" y1="7090" x2="6158" y2="7090" stroke="white" stroke-width="300"/>
<line x1="8847" y1="7090" x2="10927" y2="7090" stroke="white" stroke-width="300"/>
</svg>
